# xmcd
#
# Track frame offsets: 
#        150
#        12459
#        28662
#        37051
#        48365
#        58614
#        76290
#        86179
#        98294
#        111416
#        122777
#        138085
#        149994
#        164005
#        172785
#        199026
#        210121
#        225343
#
# Disc length: 3151 seconds
#
# Revision: 7
# Processed by: cddbd v1.5.2PL0 Copyright (c) Steve Scherf et al.
# Submitted via: ExactAudioCopy v1.1
#
DISCID=f00c4d12
DTITLE=Various Artist - Thriller Jazz
DYEAR=2006
DGENRE=Jazz
TTITLE0=Erwin Halletz and His Orchestra - Dragnet
TTITLE1=Jimmy Smith - Mission impossible
TTITLE2=Sarah Vaughan - Peter Gunn
TTITLE3=Chaquito and His Orchestra - I spy
TTITLE4=Count Basie and His Orchestra - M-Squad
TTITLE5=Quincy Jones - Ironside
TTITLE6=Peter-Thomas-Sound-Orchestra - Caught at midnight (Jerry Cotto
TTITLE6=n Theme)
TTITLE7=Lalo Schifrin - Dirty Harry
TTITLE8=The Button Down Brass - French Connection
TTITLE9=John Gregory and His Orchestra - The Untouchables
TTITLE10=Roland Shaw and His Orchestra - The James Bond Theme
TTITLE11=Stan Getz - Charade
TTITLE12=Paus Desmond - Lady in cement
TTITLE13=Roberto Delgado and His Orchestra - Hawaii Five-O
TTITLE14=James Taylor Quartet - Gotcha (theme from Starsky and Hutch)
TTITLE15=Alfred Hause and His Orchestra - Theme from Shaft
TTITLE16=Rhythm Heritage - Theme from S.W.A.T.
TTITLE17=Sammy Davis Jr. - Keep your eye on the sparrow (Baretta's The
TTITLE17=me)
EXTD=YEAR: 2006
EXTT0=
EXTT1=
EXTT2=
EXTT3=
EXTT4=
EXTT5=
EXTT6=
EXTT7=
EXTT8=
EXTT9=
EXTT10=
EXTT11=
EXTT12=
EXTT13=
EXTT14=
EXTT15=
EXTT16=
EXTT17=
PLAYORDER=
